<?xml version="1.0" encoding="UTF-8" standalone="no"?>
<svg
   viewBox="0 0 60 30"
   version="1.1"
   id="svg20"
   xmlns:xlink="http://www.w3.org/1999/xlink"
   xmlns="http://www.w3.org/2000/svg"
   xmlns:svg="http://www.w3.org/2000/svg">
  <defs
     id="defs24" />
  <clipPath
     id="a">
    <path
       d="M0 0v30h60V0z"
       id="path2" />
  </clipPath>
  <clipPath
     id="b">
    <path
       d="M30 15h30v15zv15H0zH0V0zV0h30z"
       id="path5" />
  </clipPath>
  <g
     clip-path="url(#a)"
     id="g18">
    <path
       d="M0 0v30h60V0z"
       fill="#012169"
       id="path8" />
    <path
       d="M0 0l60 30m0-30L0 30"
       stroke="#fff"
       stroke-width="6"
       id="path10" />
    <path
       d="M0 0l60 30m0-30L0 30"
       clip-path="url(#b)"
       stroke="#C8102E"
       stroke-width="4"
       id="path12" />
    <path
       d="M30 0v30M0 15h60"
       stroke="#fff"
       stroke-width="10"
       id="path14" />
    <path
       d="M30 0v30M0 15h60"
       stroke="#C8102E"
       stroke-width="6"
       id="path16" />
    <g
       id="g1582"
       transform="scale(0.00809717,0.00769231)">
      <path
         fill="#b22234"
         d="m 0,0 h 3704.9982 l 0.4712,3900 L 0,3900 Z"
         id="path1527" />
      <path
         d="m 0,450 h 3705.0018 m 0,600 H 0 m 0,600 h 3705.0018 m 0,600 L 0,2250 m 0,600 h 3705.0018 m 0,600 H 0"
         stroke="#ffffff"
         stroke-width="300"
         id="path1529" />
      <path
         fill="#3c3b6e"
         d="M 0,0 H 2964 V 2100 H 0 Z"
         id="path1531" />
      <g
         fill="#ffffff"
         id="g1556">
        <g
           id="d">
          <g
             id="c">
            <g
               id="e">
              <g
                 id="b-9">
                <path
                   id="a-9"
                   d="M 247,90 317.534,307.082 132.874,172.918 H 361.127 L 176.466,307.082 Z" />
                <use
                   xlink:href="#a-9"
                   y="420"
                   id="use1534"
                   x="0"
                   width="100%"
                   height="100%" />
                <use
                   xlink:href="#a-9"
                   y="840"
                   id="use1536"
                   x="0"
                   width="100%"
                   height="100%" />
                <use
                   xlink:href="#a-9"
                   y="1260"
                   id="use1538"
                   x="0"
                   width="100%"
                   height="100%" />
              </g>
              <use
                 xlink:href="#a-9"
                 y="1680"
                 id="use1541"
                 x="0"
                 width="100%"
                 height="100%" />
            </g>
            <use
               xlink:href="#b-9"
               x="247"
               y="210"
               id="use1544"
               width="100%"
               height="100%" />
          </g>
          <use
             xlink:href="#c"
             x="494"
             id="use1547"
             y="0"
             width="100%"
             height="100%" />
        </g>
        <use
           xlink:href="#d"
           x="988"
           id="use1550"
           y="0"
           width="100%"
           height="100%" />
        <use
           xlink:href="#c"
           x="1976"
           id="use1552"
           y="0"
           width="100%"
           height="100%" />
        <use
           xlink:href="#e"
           x="2470"
           id="use1554"
           y="0"
           width="100%"
           height="100%" />
      </g>
    </g>
  </g>
</svg>
